# xmcd CD database file
#
# Track frame offsets:
#	150
#	20312
#	41687
#	62912
#	77912
#	94037
#	113387
#	131312
#	148337
#	161012
#	175037
#	196787
#	215162
#	235487
#	258775
#	275762
#
# Disc length: 3921 seconds
#
# Revision: 1
# Processed by: cddbd v1.5.2PL0 Copyright (c) Steve Scherf et al.
# Submitted via: CDex 1.51
#
DISCID=e00f4f10
DTITLE=Various Artist - הפרופסור הדיגיטלי 3 - מיטב להיטי 91
DYEAR=1992
DGENRE=90's
TTITLE0=R.E.M. - Losing My Religion
TTITLE1=Seal - Crazy (Edit)
TTITLE2=Kylie Minogue - Shocked
TTITLE3=Black Box - Strike It Up (Hardcore Remix)
TTITLE4=DJ H. - I Like It (feat. Stefy)
TTITLE5=Heavy D and the Boyz - Now That We Found Love (7" Radio)
TTITLE6=Corina - Temptation (Radio Version)
TTITLE7=Sonia - Only Fools (Never Fall In Love)
TTITLE8=Cher - The Shoop Shoop Song (It's In His Kiss)
TTITLE9=Jason Donovan - Happy Together
TTITLE10=Chris Isaak - Wicked Game
TTITLE11=Electronic - Get The Message (Single Mix)
TTITLE12=Prince - Gett Off (with the New Power Generation)
TTITLE13=Simpsons, The - Do The Bartman
TTITLE14=Dr. Alban - Hello Afrika (7'' Edit) (feat. Leila K)
TTITLE15=Color Me Badd - I Wanna Sex You Up (Master Mix)
EXTD=YEAR: 1992
EXTT0=
EXTT1=
EXTT2=
EXTT3=
EXTT4=
EXTT5=
EXTT6=
EXTT7=
EXTT8=
EXTT9=
EXTT10=
EXTT11=
EXTT12=
EXTT13=
EXTT14=
EXTT15=
PLAYORDER=
